solid Gear_Medium_collision_segment
  facet normal 0 0 -1
    outer loop
      vertex 0.00499333250287 0 -0.00999999605119
      vertex 0.020924103799 0.00206084434715 -0.00999999605119
      vertex 0.0210253465896 0 -0.00999999605119
    endloop
  endfacet
  facet normal 0 0 -1
    outer loop
      vertex 0.00499333250287 0 -0.00999999605119
      vertex 0.00496928824206 0.000489432172646 -0.00999999605119
      vertex 0.020924103799 0.00206084434715 -0.00999999605119
    endloop
  endfacet
  facet normal 0 0 1
    outer loop
      vertex 0.00499333250287 0 0.00999999605119
      vertex 0.0210253465896 0 0.00999999605119
      vertex 0.020924103799 0.00206084434715 0.00999999605119
    endloop
  endfacet
  facet normal 0 -0 1
    outer loop
      vertex 0.00499333250287 0 0.00999999605119
      vertex 0.020924103799 0.00206084434715 0.00999999605119
      vertex 0.00496928824206 0.000489432172646 0.00999999605119
    endloop
  endfacet
  facet normal 0 -1 0
    outer loop
      vertex 0.00499333250287 0 -0.00999999605119
      vertex 0.0210253465896 0 -0.00999999605119
      vertex 0.0210253465896 0 0.00999999605119
    endloop
  endfacet
  facet normal 0 -1 0
    outer loop
      vertex 0.00499333250287 0 -0.00999999605119
      vertex 0.0210253465896 0 0.00999999605119
      vertex 0.00499333250287 0 0.00999999605119
    endloop
  endfacet
  facet normal 0.998795456205 0.0490676743274 0
    outer loop
      vertex 0.0210253465896 0 -0.00999999605119
      vertex 0.020924103799 0.00206084434715 -0.00999999605119
      vertex 0.020924103799 0.00206084434715 0.00999999605119
    endloop
  endfacet
  facet normal 0.998795456205 0.0490676743274 -0
    outer loop
      vertex 0.0210253465896 0 -0.00999999605119
      vertex 0.020924103799 0.00206084434715 0.00999999605119
      vertex 0.0210253465896 0 0.00999999605119
    endloop
  endfacet
  facet normal -0.0980171403296 0.995184726672 0
    outer loop
      vertex 0.020924103799 0.00206084434715 -0.00999999605119
      vertex 0.00496928824206 0.000489432172646 -0.00999999605119
      vertex 0.00496928824206 0.000489432172646 0.00999999605119
    endloop
  endfacet
  facet normal -0.0980171403296 0.995184726672 0
    outer loop
      vertex 0.020924103799 0.00206084434715 -0.00999999605119
      vertex 0.00496928824206 0.000489432172646 0.00999999605119
      vertex 0.020924103799 0.00206084434715 0.00999999605119
    endloop
  endfacet
  facet normal -0.998795456205 -0.0490676743274 0
    outer loop
      vertex 0.00496928824206 0.000489432172646 -0.00999999605119
      vertex 0.00499333250287 0 -0.00999999605119
      vertex 0.00499333250287 0 0.00999999605119
    endloop
  endfacet
  facet normal -0.998795456205 -0.0490676743274 0
    outer loop
      vertex 0.00496928824206 0.000489432172646 -0.00999999605119
      vertex 0.00499333250287 0 0.00999999605119
      vertex 0.00496928824206 0.000489432172646 0.00999999605119
    endloop
  endfacet
endsolid Gear_Medium_collision_segment
